<?xml version="1.0" encoding="UTF-8" standalone="no"?>
<svg
   viewBox="0 0 448 512"
   version="1.1"
   id="svg1"
   xml:space="preserve"
   width="448"
   height="512"
   xmlns="http://www.w3.org/2000/svg"
   xmlns:svg="http://www.w3.org/2000/svg"><defs
     id="defs1" /><!--! Font Awesome Pro 6.3.0 by @fontawesome - https://fontawesome.com License - https://fontawesome.com/license (Commercial License) Copyright 2023 Fonticons, Inc. --><path
     d="M 400,32 H 48 C 21.5,32 0,53.5 0,80 v 352 c 0,26.5 21.5,48 48,48 h 352 c 26.5,0 48,-21.5 48,-48 V 80 C 448,53.5 426.5,32 400,32 Z"
     id="path1" /><g
     id="g1"
     transform="translate(458)"><g
       id="group-R5"
       transform="translate(0.18635494,-4.4028193)"><path
         id="path2"
         d="m -110.41848,234.70398 -0.35066,-0.91866 -34.86134,-90.952 c -0.696,-1.78133 -1.94933,-3.28267 -3.58,-4.32 -1.62533,-1.04133 -3.532,-1.53333 -5.464,-1.43067 -1.92266,0.10267 -3.76933,0.804 -5.276,2.00267 -1.496,1.21067 -2.576,2.84667 -3.08266,4.69333 l -23.53734,72.03733 h -95.22933 l -23.53733,-72.03733 c -0.508,-1.84666 -1.588,-3.48266 -3.084,-4.69333 -1.50533,-1.19867 -3.352,-1.9 -5.27467,-2.00267 -1.93333,-0.10266 -3.84,0.38934 -5.46533,1.43067 -1.63067,1.03733 -2.88267,2.53867 -3.58,4.32 l -34.85986,90.95866 -0.35107,0.912 c -10.32973,26.944 -1.52813,57.404 21.47493,74.80267 l 0.124,0.0907 0.308,0.23333 53.1,39.752 26.264,19.88133 15.984,12.0856 c 3.84933,2.9156 9.17333,2.9156 13.024,0 l 15.98266,-12.0856 26.25867,-19.88133 53.41467,-39.98533 0.14,-0.108 c 22.98666,-17.39734 31.78266,-47.84667 21.45866,-74.78534"
         style="fill:#ffffff;fill-opacity:1;fill-rule:nonzero;stroke:none;stroke-width:0.133333" /></g></g></svg>
